<svg width="399" height="569" viewBox="0 0 399 569" fill="none" xmlns="http://www.w3.org/2000/svg">
<path d="M-264.448 181.249L-92.0298 723.131L330.97 588.539C335.703 560.259 333.438 526.849 317.687 488.857C270.457 375.538 17.8881 206.469 -62.7944 117.086L-264.448 181.249Z" fill="#EDE7FF"/>
<path d="M-296.586 204.481L-124.167 746.363L298.832 611.771C303.565 583.491 301.3 550.081 285.55 512.089C238.319 398.77 -14.2496 229.701 -94.9321 140.318L-296.586 204.481Z" fill="#6236FF"/>
<path d="M-296.586 251.938L-124.168 793.82L298.832 659.228C303.565 630.948 301.299 597.538 285.549 559.546C238.318 446.227 -14.2501 277.158 -94.9326 187.775L-296.586 251.938Z" fill="#6236FF"/>
</svg>
