<svg width="348" height="56" fill="none" xmlns="http://www.w3.org/2000/svg"><path d="M59.857 45.864V11.04h6.468v34.825h-6.468zM83.872 18.999c2.122 0 4.013.414 5.671 1.244 1.692.829 3.018 2.106 3.98 3.83.962 1.692 1.443 3.88 1.443 6.567v15.224h-6.219V31.437c0-2.355-.564-4.113-1.691-5.274-1.095-1.161-2.637-1.741-4.627-1.741-1.46 0-2.753.298-3.88.895-1.128.597-2.007 1.493-2.638 2.687-.597 1.16-.895 2.636-.895 4.427v13.433h-6.219V19.297h5.92v7.164l-1.044-2.189c.928-1.691 2.272-2.985 4.03-3.88 1.79-.929 3.847-1.393 6.169-1.393z" fill="#1D2067"/><path d="M102.68 45.864 91.287 19.297h6.468l9.8 23.433h-3.184l10.15-23.433h5.97l-11.393 26.567h-6.418z" fill="#1D2067"/><path d="M130.166 46.212c-2.952 0-5.539-.58-7.761-1.74-2.189-1.195-3.897-2.82-5.124-4.876-1.194-2.057-1.791-4.395-1.791-7.015 0-2.654.58-4.992 1.741-7.015a12.853 12.853 0 0 1 4.875-4.826c2.09-1.16 4.461-1.741 7.115-1.741 2.587 0 4.892.564 6.915 1.691 2.023 1.128 3.615 2.72 4.776 4.776 1.161 2.057 1.742 4.478 1.742 7.264 0 .265-.017.564-.05.896 0 .331-.017.646-.05.945h-22.139v-4.13h18.855l-2.437 1.294c.033-1.526-.282-2.869-.946-4.03a7.223 7.223 0 0 0-2.736-2.736c-1.128-.664-2.438-.995-3.93-.995-1.526 0-2.869.331-4.03.995-1.128.663-2.023 1.592-2.687 2.786-.63 1.16-.945 2.537-.945 4.13v.994c0 1.592.365 3.002 1.095 4.23.729 1.226 1.758 2.172 3.084 2.835 1.327.663 2.853.995 4.577.995 1.493 0 2.836-.232 4.03-.697 1.194-.464 2.256-1.194 3.184-2.189l2.093 5.473c-1.64.746-1.463.83-3.287 1.592-1.791.73-3.847 1.094-6.169 1.094z" fill="#1D2067"/><path d="M150.866 46.511c-2.222 0-4.362-.282-6.418-.846-2.023-.597-3.632-1.31-4.826-2.14l2.388-4.725c1.194.762 2.62 1.393 4.279 1.89 1.658.498 3.317.746 4.975.746 1.957 0 3.366-.265 4.229-.796.895-.53 1.343-1.243 1.343-2.139 0-.73-.298-1.277-.895-1.642-.597-.398-1.377-.696-2.339-.895a50.145 50.145 0 0 0-3.234-.547 46.854 46.854 0 0 1-3.532-.647 13.54 13.54 0 0 1-3.184-1.244 6.867 6.867 0 0 1-2.338-2.239c-.597-.928-.896-2.156-.896-3.681 0-1.692.481-3.151 1.443-4.378.962-1.26 2.305-2.223 4.03-2.886 1.758-.697 3.831-1.045 6.219-1.045 1.791 0 3.598.2 5.423.597 1.824.398 3.333.962 4.527 1.692l-.369 2.9c-1.943.39-3.756.473-6.219.39-1.166-.383-2.152-.554-3.412-.554-1.891 0-3.3.282-4.229.846-.895.564-1.343 1.277-1.343 2.14 0 .795.298 1.392.895 1.79.597.398 1.377.713 2.339.945.962.233 2.023.432 3.184.597 1.194.133 2.371.349 3.532.647a13.54 13.54 0 0 1 3.184 1.244 5.95 5.95 0 0 1 2.388 2.14c.597.928.896 2.139.896 3.631 0 1.658-.498 3.101-1.493 4.328-.962 1.228-2.338 2.19-4.129 2.886-1.791.663-3.931.995-6.418.995z" fill="#1D2067"/><path d="M171.065 46.61c-2.919 0-5.174-.746-6.766-2.238-1.592-1.526-2.388-3.765-2.388-6.717v-23.83h6.218v23.681c0 1.26.316 2.239.946 2.935.663.697 1.575 1.045 2.736 1.045 1.393 0 4.295-.017 5.224-.746l.218 4.328c-.73.597-1.843.796-2.905 1.095a12.068 12.068 0 0 1-3.283.448zm-13.532-21.72v-4.996h17.711v4.975l-17.711.02zM178.433 45.864l-.249-26.567h6.219v26.567h-5.97zm2.886-30.945c-1.161 0-2.123-.365-2.886-1.094-.73-.73-1.095-1.609-1.095-2.637 0-1.062.365-1.94 1.095-2.637.763-.73 1.725-1.094 2.886-1.094 1.16 0 2.106.348 2.835 1.044.763.664 1.145 1.51 1.145 2.538 0 1.094-.365 2.023-1.095 2.786-.73.73-1.691 1.094-2.885 1.094zM200.892 18.999c2.123 0 4.014.414 5.672 1.244 1.691.829 3.018 2.106 3.98 3.83.962 1.692 1.443 3.88 1.443 6.567v15.224h-6.219V31.437c0-2.355-.564-4.113-1.692-5.274-1.094-1.161-2.636-1.741-4.626-1.741-1.46 0-2.753.298-3.881.895-1.128.597-2.007 1.493-2.637 2.687-.597 1.16-.895 2.636-.895 4.427v13.433h-6.219V19.297h5.92v7.164l-1.045-2.189c.929-1.691 2.272-2.985 4.03-3.88 1.791-.929 3.848-1.393 6.169-1.393z" fill="#1D2067"/><path d="M225.994 55.864c-2.454 0-4.859-.331-7.214-.995-2.322-.63-4.229-1.559-5.721-2.786l2.786-4.676c1.161.961 2.62 1.724 4.378 2.288 1.791.597 3.599.895 5.423.895 2.918 0 5.058-.68 6.418-2.04 1.359-1.326 2.039-3.333 2.039-6.02v-4.725l.498-6.02-.199-6.02v-6.468h5.92v22.537c0 4.81-1.227 8.342-3.681 10.597-2.455 2.289-6.004 3.433-10.647 3.433zm-.796-11.194c-2.521 0-4.809-.53-6.866-1.592-2.023-1.094-3.631-2.604-4.825-4.527-1.161-1.924-1.742-4.18-1.742-6.766 0-2.554.581-4.793 1.742-6.717a12.3 12.3 0 0 1 4.825-4.477c2.057-1.062 4.345-1.592 6.866-1.592 2.255 0 4.279.448 6.07 1.343 1.791.896 3.217 2.289 4.278 4.18 1.095 1.89 1.642 4.31 1.642 7.263 0 2.952-.547 5.39-1.642 7.313-1.061 1.89-2.487 3.3-4.278 4.229-1.791.895-3.815 1.343-6.07 1.343zm.945-5.273c1.559 0 2.952-.316 4.179-.946 1.228-.663 2.173-1.559 2.836-2.686.697-1.161 1.045-2.488 1.045-3.98 0-1.493-.348-2.803-1.045-3.93-.663-1.162-1.608-2.04-2.836-2.637-1.227-.63-2.62-.946-4.179-.946-1.559 0-2.968.315-4.229.946a6.72 6.72 0 0 0-2.885 2.636c-.663 1.128-.995 2.438-.995 3.93 0 1.493.332 2.82.995 3.98.696 1.128 1.658 2.024 2.885 2.687 1.261.63 2.67.946 4.229.946zM244.68 45.864V11.04h5.323l15.224 25.422h-2.786l14.975-25.422h5.323l.05 34.825h-6.119l-.05-25.223h1.293l-12.736 21.243h-2.885L249.356 20.64h1.493v25.224h-6.169z" fill="#1D2067"/><path d="M300.442 45.864v-5.373l-.348-1.144v-9.403c0-1.824-.548-3.234-1.642-4.229-1.095-1.028-2.753-1.542-4.975-1.542-1.493 0-2.969.232-4.428.696-1.426.465-2.637 1.111-3.632 1.94l-2.438-4.527c1.427-1.094 3.118-1.907 5.075-2.438a22.52 22.52 0 0 1 6.169-.845c3.847 0 6.816.928 8.905 2.786 2.123 1.824 3.185 4.66 3.185 8.507v15.572h-5.871zm-8.358.349c-1.99 0-3.732-.332-5.224-.996-1.493-.696-2.653-1.641-3.483-2.835-.796-1.227-1.194-2.604-1.194-4.13 0-1.492.349-2.836 1.045-4.03.73-1.194 1.907-2.139 3.532-2.835 1.626-.697 3.782-1.045 6.468-1.045h7.711v4.13h-7.263c-2.123 0-3.549.347-4.279 1.044-.729.663-1.094 1.493-1.094 2.488 0 1.127.447 2.023 1.343 2.686.896.663 2.139.995 3.731.995 1.526 0 2.886-.348 4.08-1.045 1.227-.696 2.106-1.724 2.637-3.084l1.044 3.731c-.597 1.559-1.675 2.77-3.233 3.632-1.526.862-3.466 1.294-5.821 1.294z" fill="#1D2067"/><path d="M318.323 46.212c-2.918 0-5.174-.746-6.766-2.238-1.592-1.526-2.388-3.765-2.388-6.717v-23.83h6.219v23.681c0 1.26.315 2.239.945 2.935.664.697 1.576 1.045 2.737 1.045 1.393 0 2.554-.365 3.482-1.094l3.162 3.482c-.73.597-3.046 1.99-4.107 2.289a12.07 12.07 0 0 1-3.284.447zm-13.532-21.74-9.006-5.419 26.718.443v4.975h-17.712z" fill="#1D2067"/><path d="M335.052 46.212c-2.952 0-5.539-.58-7.761-1.74-2.189-1.195-3.897-2.82-5.124-4.876-1.194-2.057-1.791-4.395-1.791-7.015 0-2.654.58-4.992 1.741-7.015a12.853 12.853 0 0 1 4.875-4.826c2.09-1.16 4.461-1.741 7.115-1.741 2.587 0 4.892.564 6.915 1.691 2.023 1.128 3.615 2.72 4.776 4.776 1.161 2.057 1.742 4.478 1.742 7.264 0 .265-.017.564-.05.896 0 .331-.017.646-.05.945h-22.139v-4.13h18.856l-2.438 1.294c.033-1.526-.282-2.869-.946-4.03a7.223 7.223 0 0 0-2.736-2.736c-1.127-.664-2.438-.995-3.93-.995-1.526 0-2.869.331-4.03.995-1.128.663-2.023 1.592-2.686 2.786-.631 1.16-.946 2.537-.946 4.13v.994c0 1.592.365 3.002 1.095 4.23.729 1.226 1.758 2.172 3.084 2.835 1.327.663 2.853.995 4.577.995 1.493 0 2.836-.232 4.03-.697 1.194-.464 2.256-1.194 3.184-2.189l3.334 3.831c-1.194 1.393-2.704 2.471-4.528 3.234-1.791.73-3.847 1.094-6.169 1.094z" fill="#1D2067"/><rect width="51.306" height="51.306" rx="11" fill="#6663FB"/><rect opacity=".5" x="10.883" y="22.544" width="11.66" height="19.434" rx="2" fill="#fff"/><rect x="28.762" y="9.328" width="11.66" height="32.649" rx="2" fill="#fff"/></svg>