<svg width="448" height="72" fill="none" xmlns="http://www.w3.org/2000/svg"><path d="M77 59V14.2h8.32V59H77zM107.892 24.44c2.731 0 5.163.533 7.296 1.6 2.176 1.067 3.883 2.71 5.12 4.928 1.237 2.176 1.856 4.992 1.856 8.448V59h-8V40.44c0-3.03-.725-5.29-2.176-6.784-1.408-1.493-3.392-2.24-5.952-2.24-1.877 0-3.541.384-4.992 1.152-1.45.768-2.581 1.92-3.392 3.456-.768 1.493-1.152 3.392-1.152 5.696V59h-8V24.824h7.616v9.216l-1.344-2.816c1.195-2.176 2.923-3.84 5.184-4.992 2.304-1.195 4.949-1.792 7.936-1.792z" fill="#fff"/><path d="m132.087 59-14.656-34.176h8.32l12.608 30.144h-4.096l13.056-30.144h7.68L140.343 59h-8.256z" fill="#fff"/><path d="M167.446 59.448c-3.798 0-7.126-.747-9.984-2.24-2.816-1.536-5.014-3.627-6.592-6.272-1.536-2.645-2.304-5.653-2.304-9.024 0-3.413.746-6.421 2.24-9.024 1.536-2.645 3.626-4.715 6.272-6.208 2.688-1.493 5.738-2.24 9.152-2.24 3.328 0 6.293.725 8.896 2.176 2.602 1.45 4.65 3.499 6.144 6.144 1.493 2.645 2.24 5.76 2.24 9.344 0 .341-.022.725-.064 1.152 0 .427-.022.832-.064 1.216h-28.48V39.16h24.256l-3.136 1.664c.042-1.963-.363-3.69-1.216-5.184a9.302 9.302 0 0 0-3.52-3.52c-1.451-.853-3.136-1.28-5.056-1.28-1.963 0-3.691.427-5.184 1.28-1.451.853-2.603 2.048-3.456 3.584-.811 1.493-1.216 3.264-1.216 5.312v1.28c0 2.048.469 3.861 1.408 5.44.938 1.579 2.261 2.795 3.968 3.648 1.706.853 3.669 1.28 5.888 1.28 1.92 0 3.648-.299 5.184-.896s2.901-1.536 4.096-2.816l2.692 7.04c-2.11.96-1.882 1.067-4.228 2.048-2.304.939-4.95 1.408-7.936 1.408z" fill="#fff"/><path d="M194.074 59.832a31.09 31.09 0 0 1-8.256-1.088c-2.602-.768-4.672-1.685-6.208-2.752l3.072-6.08c1.536.981 3.371 1.792 5.504 2.432 2.134.64 4.267.96 6.4.96 2.518 0 4.331-.341 5.44-1.024 1.152-.683 1.728-1.6 1.728-2.752 0-.939-.384-1.643-1.152-2.112-.768-.512-1.77-.896-3.008-1.152a64.351 64.351 0 0 0-4.16-.704 60.266 60.266 0 0 1-4.544-.832 17.44 17.44 0 0 1-4.096-1.6 8.84 8.84 0 0 1-3.008-2.88c-.768-1.195-1.152-2.773-1.152-4.736 0-2.176.619-4.053 1.856-5.632 1.238-1.621 2.966-2.859 5.184-3.712 2.262-.896 4.928-1.344 8-1.344 2.304 0 4.63.256 6.976.768 2.347.512 4.288 1.237 5.824 2.176L208 31.5c-2.5.5-4.832.608-8 .5-1.5-.492-2.768-.712-4.39-.712-2.432 0-4.245.363-5.44 1.088-1.152.725-1.728 1.643-1.728 2.752 0 1.024.384 1.792 1.152 2.304.768.512 1.771.917 3.008 1.216 1.238.299 2.603.555 4.096.768 1.536.17 3.051.448 4.544.832a17.4 17.4 0 0 1 4.096 1.6 7.654 7.654 0 0 1 3.072 2.752c.768 1.195 1.152 2.752 1.152 4.672 0 2.133-.64 3.99-1.92 5.568-1.237 1.579-3.008 2.816-5.312 3.712-2.304.853-5.056 1.28-8.256 1.28z" fill="#fff"/><path d="M220.058 59.96c-3.754 0-6.656-.96-8.704-2.88-2.048-1.963-3.072-4.843-3.072-8.64V17.784h8v30.464c0 1.621.406 2.88 1.216 3.776.854.896 2.027 1.344 3.52 1.344 1.792 0 5.526-.021 6.72-.96l.281 5.568c-.939.768-2.371 1.024-3.737 1.408a15.523 15.523 0 0 1-4.224.576zM202.65 32.018v-6.426h22.784v6.4l-22.784.026zM229.537 59l-.32-34.176h8V59h-7.68zm3.712-39.808c-1.494 0-2.731-.47-3.712-1.408-.939-.939-1.408-2.07-1.408-3.392 0-1.365.469-2.496 1.408-3.392.981-.939 2.218-1.408 3.712-1.408 1.493 0 2.709.448 3.648 1.344.981.853 1.472 1.941 1.472 3.264 0 1.408-.47 2.603-1.408 3.584-.939.939-2.176 1.408-3.712 1.408zM258.429 24.44c2.73 0 5.162.533 7.296 1.6 2.176 1.067 3.882 2.71 5.12 4.928 1.237 2.176 1.856 4.992 1.856 8.448V59h-8V40.44c0-3.03-.726-5.29-2.176-6.784-1.408-1.493-3.392-2.24-5.952-2.24-1.878 0-3.542.384-4.992 1.152-1.451.768-2.582 1.92-3.392 3.456-.768 1.493-1.152 3.392-1.152 5.696V59h-8V24.824h7.616v9.216l-1.344-2.816c1.194-2.176 2.922-3.84 5.184-4.992 2.304-1.195 4.949-1.792 7.936-1.792z" fill="#fff"/><path d="M290.72 71.864a34.06 34.06 0 0 1-9.28-1.28c-2.987-.81-5.44-2.005-7.36-3.584l3.584-6.016c1.493 1.237 3.37 2.219 5.632 2.944a21.932 21.932 0 0 0 6.976 1.152c3.754 0 6.506-.875 8.256-2.624 1.749-1.707 2.624-4.288 2.624-7.744v-6.08l.64-7.744-.256-7.744v-8.32h7.616v28.992c0 6.187-1.579 10.73-4.736 13.632-3.158 2.944-7.723 4.416-13.696 4.416zm-1.024-14.4c-3.243 0-6.187-.683-8.832-2.048-2.603-1.408-4.672-3.35-6.208-5.824-1.494-2.475-2.24-5.376-2.24-8.704 0-3.285.746-6.165 2.24-8.64 1.536-2.475 3.605-4.395 6.208-5.76 2.645-1.365 5.589-2.048 8.832-2.048 2.901 0 5.504.576 7.808 1.728 2.304 1.152 4.138 2.944 5.504 5.376 1.408 2.432 2.112 5.547 2.112 9.344 0 3.797-.704 6.933-2.112 9.408-1.366 2.432-3.2 4.245-5.504 5.44-2.304 1.152-4.907 1.728-7.808 1.728zm1.216-6.784c2.005 0 3.797-.405 5.376-1.216 1.578-.853 2.794-2.005 3.648-3.456.896-1.493 1.344-3.2 1.344-5.12s-.448-3.605-1.344-5.056c-.854-1.493-2.07-2.624-3.648-3.392-1.579-.81-3.371-1.216-5.376-1.216-2.006 0-3.819.405-5.44 1.216a8.647 8.647 0 0 0-3.712 3.392c-.854 1.45-1.28 3.136-1.28 5.056s.426 3.627 1.28 5.12c.896 1.45 2.133 2.603 3.712 3.456 1.621.81 3.434 1.216 5.44 1.216zM314.757 59V14.2h6.848l19.584 32.704h-3.584L356.869 14.2h6.848l.064 44.8h-7.872l-.064-32.448h1.664L341.125 53.88h-3.712l-16.64-27.328h1.92V59h-7.936z" fill="#fff"/><path d="M386.49 59v-6.912l-.448-1.472V38.52c0-2.347-.704-4.16-2.112-5.44-1.408-1.323-3.541-1.984-6.4-1.984-1.92 0-3.818.299-5.696.896-1.834.597-3.392 1.43-4.672 2.496l-3.136-5.824c1.835-1.408 4.011-2.453 6.528-3.136a28.972 28.972 0 0 1 7.936-1.088c4.95 0 8.768 1.195 11.456 3.584 2.731 2.347 4.096 5.995 4.096 10.944V59h-7.552zm-10.752.448c-2.56 0-4.8-.427-6.72-1.28-1.92-.896-3.413-2.112-4.48-3.648-1.024-1.579-1.536-3.35-1.536-5.312 0-1.92.448-3.648 1.344-5.184.939-1.536 2.454-2.752 4.544-3.648 2.091-.896 4.864-1.344 8.32-1.344h9.92v5.312h-9.344c-2.73 0-4.565.448-5.504 1.344-.938.853-1.408 1.92-1.408 3.2 0 1.45.576 2.603 1.728 3.456 1.152.853 2.752 1.28 4.8 1.28 1.963 0 3.712-.448 5.248-1.344 1.579-.896 2.71-2.219 3.392-3.968l1.344 4.8c-.768 2.005-2.154 3.563-4.16 4.672-1.962 1.11-4.458 1.664-7.488 1.664z" fill="#fff"/><path d="M409.493 59.448c-3.754 0-6.656-.96-8.704-2.88-2.048-1.963-3.072-4.843-3.072-8.64V17.272h8v30.464c0 1.621.406 2.88 1.216 3.776.854.896 2.027 1.344 3.52 1.344 1.792 0 3.286-.47 4.48-1.408l4.067 4.48c-.939.768-3.917 2.56-5.283 2.944a15.523 15.523 0 0 1-4.224.576zM392.085 31.48 380.5 24.51l34.369.57v6.4h-22.784z" fill="#fff"/><path d="M431.013 59.448c-3.797 0-7.125-.747-9.984-2.24-2.816-1.536-5.013-3.627-6.592-6.272-1.536-2.645-2.304-5.653-2.304-9.024 0-3.413.747-6.421 2.24-9.024 1.536-2.645 3.627-4.715 6.272-6.208 2.688-1.493 5.739-2.24 9.152-2.24 3.328 0 6.294.725 8.896 2.176 2.603 1.45 4.651 3.499 6.144 6.144 1.494 2.645 2.24 5.76 2.24 9.344 0 .341-.021.725-.064 1.152 0 .427-.021.832-.064 1.216h-28.48V39.16h24.256l-3.136 1.664c.043-1.963-.362-3.69-1.216-5.184a9.288 9.288 0 0 0-3.52-3.52c-1.45-.853-3.136-1.28-5.056-1.28-1.962 0-3.69.427-5.184 1.28-1.45.853-2.602 2.048-3.456 3.584-.81 1.493-1.216 3.264-1.216 5.312v1.28c0 2.048.47 3.861 1.408 5.44.939 1.579 2.262 2.795 3.968 3.648 1.707.853 3.67 1.28 5.888 1.28 1.92 0 3.648-.299 5.184-.896s2.902-1.536 4.096-2.816l4.288 4.928c-1.536 1.792-3.477 3.179-5.824 4.16-2.304.939-4.949 1.408-7.936 1.408z" fill="#fff"/><rect width="66" height="66" rx="11" fill="#6663FB"/><rect opacity=".5" x="14" y="29" width="15" height="25" rx="2" fill="#fff"/><rect x="37" y="12" width="15" height="42" rx="2" fill="#fff"/></svg>